<svg width="101" height="61" viewBox="0 0 101 61" fill="none" xmlns="http://www.w3.org/2000/svg">
<path d="M62.5919 29.0312C62.5919 29.2522 62.4129 29.4312 62.1919 29.4312H0.400002C0.179088 29.4312 0 29.6103 0 29.8312V31.3187C0 31.5397 0.179086 31.7188 0.4 31.7188H62.1919C62.4129 31.7188 62.5919 31.8978 62.5919 32.1187V34.4517C62.5919 34.7609 62.9276 34.9532 63.1943 34.7968L69.8055 30.9201C70.0691 30.7655 70.0691 30.3845 69.8055 30.2299L63.1943 26.3532C62.9276 26.1968 62.5919 26.3891 62.5919 26.6983V29.0312Z" fill="white"/>
<path d="M101 30.5C101 47.3447 87.2972 61 70.3939 61C53.4906 61 39.7878 47.3447 39.7878 30.5C39.7878 13.6553 53.4906 0 70.3939 0C87.2972 0 101 13.6553 101 30.5ZM41.9303 30.5C41.9303 46.1656 54.6739 58.865 70.3939 58.865C86.1139 58.865 98.8575 46.1656 98.8575 30.5C98.8575 14.8344 86.1139 2.135 70.3939 2.135C54.6739 2.135 41.9303 14.8344 41.9303 30.5Z" fill="#E9E9E9" fill-opacity="0.5"/>
</svg>
