<svg width="40" height="40" viewBox="0 0 40 40" fill="none" xmlns="http://www.w3.org/2000/svg">
<path d="M40 20C40 31.0457 31.0457 40 20 40C8.9543 40 0 31.0457 0 20C0 8.9543 8.9543 0 20 0C31.0457 0 40 8.9543 40 20ZM2 20C2 29.9411 10.0589 38 20 38C29.9411 38 38 29.9411 38 20C38 10.0589 29.9411 2 20 2C10.0589 2 2 10.0589 2 20Z" fill="#0370B8"/>
<path d="M25.1723 10.3967H15.5168C12.8505 10.3967 10.6891 12.5582 10.6891 15.2245V24.8799C10.6891 27.5462 12.8505 29.7076 15.5168 29.7076H25.1723C27.8385 29.7076 30 27.5462 30 24.8799V15.2245C30 12.5582 27.8385 10.3967 25.1723 10.3967Z" stroke="#0370B8" stroke-width="2" stroke-linecap="round" stroke-linejoin="round"/>
<path d="M24.2066 19.4439C24.3258 20.2475 24.1885 21.0682 23.8144 21.7892C23.4402 22.5103 22.8483 23.095 22.1226 23.4603C21.397 23.8255 20.5747 23.9526 19.7726 23.8236C18.9706 23.6945 18.2297 23.3158 17.6553 22.7414C17.0808 22.167 16.7022 21.4261 16.5731 20.624C16.444 19.822 16.5712 18.9997 16.9364 18.274C17.3016 17.5484 17.8864 16.9564 18.6074 16.5823C19.3285 16.2081 20.1492 16.0709 20.9528 16.19C21.7724 16.3116 22.5313 16.6935 23.1172 17.2795C23.7031 17.8654 24.0851 18.6242 24.2066 19.4439Z" stroke="#0370B8" stroke-width="2" stroke-linecap="round" stroke-linejoin="round"/>
<path d="M25.655 14.7416H25.665" stroke="#0370B8" stroke-width="2" stroke-linecap="round" stroke-linejoin="round"/>
</svg>
