<svg width="40" height="40" viewBox="0 0 40 40" fill="none" xmlns="http://www.w3.org/2000/svg">
<path d="M40 20C40 31.0457 31.0457 40 20 40C8.95431 40 0 31.0457 0 20C0 8.95431 8.95431 0 20 0C31.0457 0 40 8.95431 40 20ZM2 20C2 29.9411 10.0589 38 20 38C29.9411 38 38 29.9411 38 20C38 10.0589 29.9411 2 20 2C10.0589 2 2 10.0589 2 20Z" fill="#0370B8"/>
<path d="M23.5176 16.6266C25.0541 16.6266 26.5276 17.237 27.6141 18.3235C28.7005 19.4099 29.3109 20.8834 29.3109 22.4199V29.1787H25.4487V22.4199C25.4487 21.9078 25.2453 21.4166 24.8831 21.0544C24.521 20.6923 24.0298 20.4888 23.5176 20.4888C23.0055 20.4888 22.5143 20.6923 22.1521 21.0544C21.79 21.4166 21.5865 21.9078 21.5865 22.4199V29.1787H17.7244V22.4199C17.7244 20.8834 18.3347 19.4099 19.4212 18.3235C20.5076 17.237 21.9812 16.6266 23.5176 16.6266Z" stroke="#0370B8" stroke-width="2" stroke-linecap="round" stroke-linejoin="round"/>
<path d="M13.8622 17.5921H10V29.1786H13.8622V17.5921Z" stroke="#0370B8" stroke-width="2" stroke-linecap="round" stroke-linejoin="round"/>
<path d="M11.9311 14.6955C12.9976 14.6955 13.8622 13.8309 13.8622 12.7644C13.8622 11.6979 12.9976 10.8333 11.9311 10.8333C10.8646 10.8333 10 11.6979 10 12.7644C10 13.8309 10.8646 14.6955 11.9311 14.6955Z" stroke="#0370B8" stroke-width="2" stroke-linecap="round" stroke-linejoin="round"/>
</svg>
