<svg width="40" height="40" viewBox="0 0 40 40" fill="none" xmlns="http://www.w3.org/2000/svg">
<path d="M40 20C40 31.0457 31.0457 40 20 40C8.9543 40 0 31.0457 0 20C0 8.9543 8.9543 0 20 0C31.0457 0 40 8.9543 40 20ZM2 20C2 29.9411 10.0589 38 20 38C29.9411 38 38 29.9411 38 20C38 10.0589 29.9411 2 20 2C10.0589 2 2 10.0589 2 20Z" fill="#0370B8"/>
<path d="M30.315 11.3039C29.4128 11.9448 28.4139 12.435 27.3567 12.7556C26.7893 12.0986 26.0352 11.6329 25.1964 11.4215C24.3577 11.2101 23.4746 11.2633 22.6668 11.5738C21.859 11.8843 21.1654 12.4372 20.6798 13.1577C20.1941 13.8782 19.9399 14.7315 19.9515 15.6022V16.551C18.2958 16.5943 16.6552 16.2244 15.1758 15.4745C13.6964 14.7246 12.4241 13.6178 11.4723 12.2528C11.4723 12.2528 7.70374 20.7924 16.183 24.5877C14.2427 25.9142 11.9313 26.5793 9.58801 26.4854C18.0673 31.2297 28.4308 26.4854 28.4308 15.5737C28.4299 15.3094 28.4047 15.0458 28.3554 14.7862C29.3169 13.8312 29.9955 12.6254 30.315 11.3039Z" stroke="#0370B8" stroke-width="2" stroke-linecap="round" stroke-linejoin="round"/>
</svg>
